<svg width="734" height="640" viewBox="0 0 734 640" fill="none" xmlns="http://www.w3.org/2000/svg" xmlns:xlink="http://www.w3.org/1999/xlink">
<rect width="734" height="640" fill="url(#pattern0)"/>
<defs>
<pattern id="pattern0" patternContentUnits="objectBoundingBox" width="1" height="1">
<use xlink:href="#image0" transform="translate(-0.00408719) scale(0.0013624 0.0015625)"/>
</pattern>
<image id="image0" width="740" height="640" xlink:href="img/home_png.png"/>
</defs>
<path d="M221 530.7L441.8 538.7L511 525V546.7L442.5 566.4L221 555.4V530.7Z" fill="#3595F6" fill-opacity="0.75"/>
<path d="M222 529.7V504.7L442.3 508L512 504.7V524.7L442.7 537.7L222 529.7Z" fill="#3595F6" fill-opacity="0.75"/>
<path d="M222 503.7V478.7H443H512V501.7L444 508.7L222 503.7Z" fill="#3595F6" fill-opacity="0.75"/>
<path d="M222 479.7V454.7L443.3 451L511 457.7V479.7H443" fill="#3595F6" fill-opacity="0.75"/>
<path d="M222 453.7V427.7L443.5 424.4L512 435.4V456.7L443 450L222 453.7Z" fill="#3595F6" fill-opacity="0.75"/>
<path d="M221 426.7V403L442 390.7L513 413.7V435L442 422.7L221 426.7Z" fill="#3595F6" fill-opacity="0.75"/>
<path d="M221 404.7V379.7L443.2 363.4L513 392V412.7L442.7 391L221 404.7Z" fill="#3595F6" fill-opacity="0.75"/>
<path d="M221 379.7V354.7L443.5 334.4L513 371V391.7L441 363L221 379.7Z" fill="#3595F6" fill-opacity="0.75"/>
<path d="M221 353.7V329.7L444 305L513 349V370.7L443.7 332.7L221 353.7Z" fill="#3595F6" fill-opacity="0.75"/>
<path d="M221 328.7V304.7L443.5 276L513 327V347.7L442.7 305.4L221 328.7Z" fill="#3595F6" fill-opacity="0.75"/>
<path d="M220 304.7V280.7L442.3 247.7L513 307V326.7L443 276L220 304.7Z" fill="#3595F6" fill-opacity="0.75"/>
<path d="M221 279.7V255.7L442.2 220.7L512 284.7V305.7L443.3 247.4L221 279.7Z" fill="#3595F6" fill-opacity="0.75"/>
<path d="M221 255.7V230.7L443.3 192.7L512 263V283.7L443 219.7L221 255.7Z" fill="#3595F6" fill-opacity="0.75"/>
<path d="M221 229.7V204.7L441.8 161L512 240V262.7L443 189.4L221 229.7Z" fill="#3595F6" fill-opacity="0.75"/>
<path d="M222 205.7V180.7L442 132.7L512 217.7V240.7L441.3 161.4L222 205.7Z" fill="#3595F6" fill-opacity="0.75"/>
<path d="M221 180.7V155.7L440.8 103.7L512 196V218.7L442.3 132.4L221 180.7Z" fill="#3595F6" fill-opacity="0.75"/>
<path d="M221 155.7V129.7L443 73L512 174.7V195.7L442.7 104L221 155.7Z" fill="#3595F6" fill-opacity="0.75"/>
</svg>